<?xml version="1.0" standalone="no"?>
<!DOCTYPE svg PUBLIC "-//W3C//DTD SVG 20010904//EN"
 "http://www.w3.org/TR/2001/REC-SVG-20010904/DTD/svg10.dtd">
<svg version="1.0" xmlns="http://www.w3.org/2000/svg"
 width="5400.000000pt" height="5400.000000pt" viewBox="0 0 5400.000000 5400.000000"
 preserveAspectRatio="xMidYMid meet">

<g transform="translate(0.000000,5400.000000) scale(0.100000,-0.100000)"
fill="#000000" stroke="none">
<path d="M28323 44691 c-34 -3 -65 -9 -69 -13 -4 -5 -3 -8 3 -8 5 0 20 -9 32
-19 13 -11 28 -22 34 -24 40 -14 -36 -23 -261 -29 -274 -7 -407 -19 -478 -43
-25 -8 -53 -15 -64 -15 -10 0 -56 -9 -103 -20 -46 -11 -146 -24 -221 -29 -120
-8 -141 -12 -183 -36 -39 -22 -67 -29 -147 -36 -54 -4 -103 -12 -108 -17 -6
-6 3 -19 21 -34 l30 -25 -25 -12 c-14 -6 -89 -20 -166 -31 -99 -14 -152 -26
-177 -41 -56 -33 -111 -50 -175 -55 -32 -2 -65 -9 -73 -16 -13 -11 -12 -14 6
-29 12 -10 21 -19 21 -22 0 -8 -32 -18 -90 -28 -30 -5 -86 -24 -125 -43 -38
-19 -110 -47 -160 -61 -131 -38 -123 -34 -96 -54 36 -27 21 -45 -56 -66 -37
-10 -97 -33 -133 -50 -36 -18 -92 -38 -125 -44 -55 -11 -225 -85 -225 -99 0
-3 7 -13 16 -23 14 -16 14 -18 -3 -27 -10 -5 -42 -15 -70 -21 -64 -13 -170
-60 -216 -95 -19 -14 -40 -26 -48 -26 -23 0 -59 -29 -53 -44 8 -21 -50 -63
-112 -81 -32 -9 -84 -34 -116 -56 -33 -21 -66 -39 -73 -39 -30 0 -61 -23 -80
-58 -31 -56 -95 -98 -193 -127 -48 -14 -114 -40 -146 -57 -58 -31 -63 -31
-185 -31 -69 1 -134 -4 -144 -9 -18 -9 -18 -11 2 -32 12 -12 21 -25 21 -28 0
-16 -204 -48 -307 -48 -46 0 -97 -6 -115 -14 -64 -26 -134 -48 -203 -63 -64
-14 -84 -25 -85 -45 0 -5 9 -8 19 -8 11 0 23 -4 26 -10 3 -5 16 -10 28 -10 47
-1 -12 -20 -94 -31 -71 -10 -171 -41 -354 -110 -27 -10 -61 -19 -75 -19 -64
-1 -63 -40 1 -40 72 0 43 -33 -43 -49 -31 -5 -81 -24 -111 -41 -30 -17 -93
-41 -139 -55 -45 -13 -117 -33 -158 -45 -82 -23 -120 -51 -120 -86 0 -27 -59
-66 -133 -88 -56 -17 -140 -84 -157 -126 -8 -20 -28 -39 -54 -52 -23 -11 -48
-26 -56 -33 -27 -24 -134 -80 -178 -95 -27 -8 -47 -22 -52 -35 -13 -34 -89
-125 -121 -144 -17 -10 -50 -21 -75 -25 -63 -8 -84 -22 -84 -54 0 -35 -32 -87
-85 -137 -23 -22 -45 -50 -49 -62 -4 -13 -21 -26 -44 -34 -35 -12 -36 -12 -12
-21 20 -7 22 -11 9 -22 -33 -31 -89 -38 -376 -47 -281 -9 -297 -10 -410 -40
-65 -18 -143 -35 -173 -40 -30 -4 -84 -13 -120 -18 -128 -22 -133 -25 -69 -55
52 -23 41 -30 -66 -45 -119 -17 -417 -121 -449 -158 -14 -15 -26 -32 -26 -37
0 -5 -12 -39 -26 -75 -29 -72 -29 -80 -4 -436 6 -88 8 -180 5 -205 -8 -60 -24
-110 -36 -110 -16 0 -49 -39 -49 -59 0 -11 9 -23 20 -26 27 -9 27 -58 0 -85
-15 -15 -23 -43 -31 -102 -10 -77 -28 -126 -42 -111 -4 3 -7 19 -7 34 0 22
-15 39 -34 39 -2 0 -11 -51 -21 -112 -10 -62 -25 -126 -33 -143 -22 -42 -49
-117 -77 -212 -28 -99 -30 -103 -57 -103 -12 0 -18 -3 -15 -6 4 -4 -16 -33
-43 -64 -28 -32 -57 -73 -65 -91 -20 -47 -45 -72 -80 -84 -39 -13 -87 -107
-121 -235 -34 -128 -73 -247 -96 -293 -19 -39 -22 -40 -75 -20 -6 3 -19 -7
-28 -21 -14 -20 -16 -38 -10 -85 6 -48 3 -74 -15 -128 -12 -37 -26 -72 -31
-77 -5 -6 -9 -19 -9 -30 0 -12 -9 -35 -19 -52 -12 -20 -25 -77 -36 -163 -14
-106 -21 -131 -33 -129 -8 2 -20 12 -26 23 -6 11 -15 23 -20 26 -4 4 -5 17 -1
30 6 20 5 22 -6 11 -13 -12 -15 -82 -8 -226 3 -47 1 -51 -41 -87 -48 -41 -48
-41 -70 -252 -6 -59 -16 -108 -27 -123 l-17 -26 -18 24 c-15 20 -19 21 -28 8
-5 -8 -10 -22 -10 -31 0 -19 -14 -48 -54 -107 -27 -39 -28 -47 -23 -107 7 -76
-21 -177 -59 -212 -23 -21 -23 -23 -9 -71 14 -47 14 -52 -10 -106 -14 -31 -25
-63 -25 -71 0 -7 -24 -25 -54 -39 -29 -14 -56 -33 -60 -42 -3 -9 -3 -51 0 -93
6 -70 3 -84 -29 -178 -20 -57 -36 -111 -36 -120 1 -39 -11 -151 -21 -202 -5
-29 -10 -72 -10 -95 0 -60 -23 -88 -65 -80 -22 4 -35 1 -41 -7 -11 -18 -7
-246 8 -417 l12 -143 -30 -24 c-16 -13 -34 -24 -41 -25 -33 -1 -32 43 -32
-1650 0 -1692 2 -1828 26 -1845 10 -7 14 -19 10 -29 -4 -10 -3 -26 3 -35 7
-14 4 -23 -10 -36 -13 -11 -17 -22 -11 -29 21 -26 18 -618 -3 -760 -12 -79
-15 -229 -17 -730 -1 -347 1 -649 5 -671 4 -22 16 -58 26 -80 11 -22 22 -49
27 -60 5 -14 9 4 13 55 5 66 7 71 15 45 5 -16 8 -73 7 -125 -6 -212 -4 -261
13 -286 8 -13 25 -24 36 -24 36 0 86 -75 109 -160 6 -25 22 -63 34 -85 16 -27
25 -65 30 -119 12 -137 23 -161 46 -100 5 13 14 24 20 24 14 0 13 -390 -1
-427 -6 -15 -12 -91 -15 -168 -7 -211 -53 -585 -76 -612 -27 -33 -51 -4 -98
122 -43 117 -91 191 -142 221 -8 5 -28 45 -43 89 -38 108 -64 163 -85 178 -39
27 -90 100 -114 165 -25 64 -114 182 -167 219 -9 7 -34 37 -55 65 -20 29 -85
99 -143 155 -79 76 -124 111 -176 137 -76 37 -139 59 -170 60 -18 1 -20 8 -20
72 0 40 -3 75 -7 79 -4 5 -5 19 -2 31 7 27 -15 34 -34 11 -13 -15 -32 -125
-32 -185 0 -24 -7 -57 -16 -73 -13 -27 -20 -30 -52 -27 l-37 3 -9 -138 c-8
-131 -8 -139 11 -157 18 -16 20 -33 22 -164 1 -147 13 -242 31 -260 7 -7 13
-3 16 12 4 12 10 22 14 22 5 0 11 13 15 29 3 16 13 32 21 35 14 5 44 -2 54
-13 3 -4 16 -12 30 -19 14 -7 48 -26 75 -43 28 -16 58 -32 68 -35 9 -4 17 -11
17 -16 0 -5 4 -7 9 -3 5 3 12 1 16 -5 3 -5 14 -10 25 -10 10 0 20 -6 23 -12 2
-7 29 -30 58 -50 76 -52 308 -283 345 -343 18 -27 35 -63 39 -80 3 -16 10 -32
14 -35 9 -6 61 -140 61 -157 0 -6 11 -34 25 -61 14 -28 25 -61 25 -73 0 -39
20 -99 32 -99 9 0 9 -3 0 -12 -7 -7 -8 -17 -1 -30 5 -10 7 -18 4 -18 -3 0 1
-13 9 -28 8 -16 14 -44 14 -63 -1 -48 18 -180 38 -269 10 -41 18 -109 19 -150
1 -41 3 -77 4 -80 1 -3 5 -41 8 -85 7 -103 29 -219 42 -223 6 -2 11 -17 11
-32 0 -16 7 -33 15 -38 15 -8 17 -19 14 -62 0 -8 4 -28 10 -45 21 -60 41 -134
41 -152 0 -10 7 -37 15 -60 8 -22 16 -52 19 -65 2 -12 14 -50 26 -83 12 -33
28 -85 35 -115 28 -116 49 -176 67 -193 10 -10 18 -26 18 -35 0 -10 4 -22 8
-27 24 -27 57 -150 93 -345 25 -136 24 -133 71 -187 22 -26 45 -59 50 -74 9
-27 11 -28 116 -32 210 -8 1115 3 1129 15 7 6 23 12 36 13 37 4 38 5 32 15 -3
5 3 10 14 10 12 0 21 4 21 9 0 5 10 11 21 14 15 4 20 11 15 22 -3 9 -2 14 3
10 5 -3 15 -3 23 0 10 4 13 23 12 70 -2 36 1 67 7 70 15 10 10 40 -9 66 -13
16 -19 42 -20 82 -1 50 -5 62 -26 80 -18 16 -24 28 -20 45 4 12 10 22 15 22 9
0 6 8 -20 58 -9 18 -9 27 0 38 9 11 9 24 0 57 -6 23 -13 53 -16 67 -2 14 -7
35 -11 48 -4 13 -2 22 4 22 6 0 2 21 -8 51 -15 39 -16 55 -8 68 9 14 7 22 -11
40 -24 24 -27 37 -8 44 9 3 9 11 -1 38 -8 19 -14 39 -15 46 0 7 -6 14 -13 17
-9 3 -10 15 -4 40 4 19 5 52 1 73 -3 21 -6 58 -5 83 1 25 -2 47 -6 50 -4 3
-10 23 -13 45 -4 26 -3 35 3 25 6 -10 9 -5 8 19 -1 18 -7 35 -14 38 -19 7 -25
32 -14 53 6 11 6 21 1 24 -9 6 -12 42 -14 166 0 25 3 71 8 103 5 38 4 62 -4
70 -6 8 -8 17 -4 20 3 4 1 7 -6 7 -8 0 -7 5 3 16 19 18 21 61 4 66 -17 6 -19
78 -2 78 8 0 14 5 14 11 0 5 -5 7 -11 3 -16 -10 -28 14 -22 47 2 18 0 29 -7
29 -16 0 -2 79 17 98 9 10 11 18 3 26 -5 7 -7 16 -2 20 4 4 -1 12 -11 18 -13
7 -17 17 -13 36 12 55 16 114 9 125 -8 14 -8 76 1 105 4 12 4 22 -1 22 -5 0
-7 18 -5 40 2 22 8 37 13 34 5 -3 9 -1 9 5 0 5 -5 11 -10 13 -12 4 -18 317 -7
336 5 6 6 16 3 21 -10 15 -15 121 -6 121 4 0 5 15 0 33 -4 18 -5 47 -2 63 3
16 4 50 4 76 -1 26 3 50 8 53 15 9 12 88 -4 137 -8 24 -12 63 -10 88 3 25 5
62 4 82 0 21 4 37 9 35 9 -2 11 2 11 29 0 8 -4 12 -10 9 -5 -3 -10 -1 -10 4 0
6 5 11 12 11 9 0 9 3 0 12 -7 7 -12 22 -12 35 0 17 -6 23 -21 23 -21 0 -21 0
1 18 16 13 20 23 14 33 -4 8 -7 24 -6 36 2 12 -4 38 -13 57 -11 22 -14 43 -9
58 17 52 23 159 9 177 -8 11 -7 13 3 7 11 -7 13 -1 9 27 -2 19 0 40 6 46 7 7
3 8 -12 4 -12 -3 -21 -1 -21 6 0 6 4 11 9 11 23 0 33 138 12 163 -5 7 -7 18
-3 24 6 9 8 118 2 118 -3 0 -12 90 -11 119 0 17 7 34 16 38 15 9 21 39 8 37
-26 -4 -32 2 -24 24 5 14 5 30 0 40 -9 16 3 57 17 57 3 0 2 -5 -2 -12 -4 -7
-3 -8 4 -4 17 10 15 36 -3 36 -12 0 -15 14 -17 63 0 34 0 69 1 77 1 8 2 44 2
79 0 48 -3 67 -15 73 -17 10 -22 38 -6 38 5 0 14 -8 20 -17 9 -14 10 -9 6 27
-3 25 -1 52 4 60 5 8 5 19 0 25 -12 14 -18 255 -7 255 5 0 1 8 -8 17 -16 15
-16 18 -1 28 9 7 13 15 9 19 -11 11 -11 160 -1 173 6 7 15 10 22 6 8 -5 8 -3
0 8 -7 8 -15 29 -19 47 -4 20 -13 32 -23 32 -13 0 -12 3 4 15 10 8 15 15 10
15 -5 0 -3 7 4 16 11 13 10 16 -8 21 -16 4 -22 13 -22 34 0 30 14 39 24 17 3
-7 3 1 -1 17 -9 44 -15 51 -25 25 -5 -12 -11 -21 -13 -18 -3 3 -1 16 4 30 10
28 3 117 -12 136 -7 8 -5 12 7 12 9 0 16 3 17 8 0 4 2 15 4 25 2 9 -1 15 -6
11 -5 -3 -7 -10 -4 -15 9 -14 -5 -11 -21 6 -12 11 -14 31 -11 79 3 36 0 69 -5
74 -7 7 -7 25 -3 49 5 21 9 43 10 48 1 12 -30 45 -43 45 -12 0 -19 29 -14 53
3 16 23 26 21 10 -4 -24 2 -43 11 -38 8 5 7 11 -1 21 -6 8 -8 14 -3 14 4 0 -3
11 -15 24 -16 17 -19 26 -10 31 8 6 10 28 5 76 -4 43 -2 69 4 69 6 0 5 10 -2
25 -6 14 -15 25 -20 25 -5 0 -7 18 -4 40 3 23 1 40 -5 40 -6 0 -8 -4 -4 -9 3
-5 0 -13 -6 -17 -16 -10 -29 17 -18 38 5 10 7 18 3 18 -3 0 -1 6 5 14 6 8 11
18 10 22 -3 18 1 34 9 33 28 -5 35 2 18 20 -11 12 -17 38 -19 75 -1 31 -5 56
-9 56 -4 0 -16 9 -27 21 -12 13 -21 17 -26 10 -3 -6 -12 -11 -18 -11 -7 0 -4
7 6 14 23 17 22 37 -3 64 -13 14 -16 22 -8 22 8 0 9 3 3 8 -13 9 -12 32 3 58
9 18 9 24 -3 34 -8 6 -18 9 -24 6 -5 -3 -11 12 -13 34 -2 22 0 40 4 40 5 0 8
5 8 11 0 5 -4 7 -10 4 -5 -3 -10 0 -10 9 0 8 -6 16 -12 18 -8 3 -4 9 10 17 20
11 21 13 7 28 -14 14 -14 18 0 40 9 13 14 30 11 36 -2 7 -5 4 -5 -6 -1 -10 -5
-16 -11 -12 -5 3 -7 12 -3 20 3 8 1 15 -5 15 -6 0 -8 9 -5 20 4 14 1 20 -8 18
-15 -3 -19 24 -5 34 6 4 5 12 -2 21 -12 14 -6 51 7 43 4 -3 5 65 4 150 -3 121
-1 155 10 159 20 8 20 55 -1 56 -11 0 -12 2 -4 6 10 4 10 8 2 18 -7 9 -9 23
-4 37 4 13 7 29 5 37 -1 7 2 10 9 6 6 -4 10 4 11 22 0 15 2 55 5 88 3 34 1 73
-6 89 -10 27 -12 28 -24 11 -9 -13 -15 -15 -20 -7 -4 7 -2 12 4 12 8 0 10 13
6 40 -3 22 -9 58 -12 80 -3 22 -3 57 1 77 6 36 7 36 19 12 7 -13 19 -23 26
-21 7 2 27 -2 43 -8 23 -8 33 -7 38 2 4 7 8 117 9 245 0 173 4 242 15 273 8
22 17 86 20 142 7 103 39 326 50 336 3 3 5 0 5 -6 0 -18 35 -14 53 6 10 10 17
25 17 33 0 8 5 20 11 26 7 7 13 29 15 50 9 87 26 160 50 207 20 40 27 73 34
171 6 91 18 155 46 253 20 72 40 130 43 129 3 -1 16 4 27 11 37 20 82 103 104
192 12 47 25 90 30 95 4 6 10 28 13 50 6 42 17 77 44 132 12 26 21 33 43 33
16 0 36 3 44 6 16 6 86 142 86 167 0 31 30 85 57 102 15 10 33 23 39 29 6 6
31 24 56 40 38 24 51 40 74 93 29 70 92 150 153 198 22 17 75 58 118 92 43 34
94 74 113 90 19 15 58 53 85 85 41 48 70 68 167 118 64 33 129 71 145 84 15
12 38 28 50 35 23 12 251 86 357 116 33 9 91 32 128 51 83 42 219 87 342 113
218 47 629 82 876 76 47 -1 168 -4 270 -5 102 -2 239 -7 305 -11 66 -5 282
-13 480 -18 198 -6 401 -15 451 -20 92 -11 300 -27 448 -36 45 -3 146 -10 226
-16 418 -29 477 -30 472 -10 -3 14 314 16 323 1 3 -5 -2 -10 -12 -10 -17 -1
-17 -1 0 -11 9 -5 17 -18 17 -29 0 -21 36 -35 110 -44 25 -3 212 -8 415 -11
602 -10 844 -26 1040 -70 33 -7 87 -18 120 -25 57 -12 108 -29 202 -71 22 -10
63 -24 90 -30 26 -7 71 -21 98 -32 28 -10 77 -27 110 -37 33 -10 72 -22 86
-28 14 -6 57 -18 95 -27 116 -28 242 -74 353 -130 58 -29 126 -58 151 -65 248
-66 412 -126 519 -190 30 -17 87 -45 127 -61 40 -15 144 -64 231 -108 87 -43
195 -90 241 -105 97 -31 282 -118 333 -158 20 -15 41 -28 46 -28 6 0 18 -9 27
-19 10 -11 54 -34 99 -51 87 -34 239 -107 247 -119 16 -23 115 -87 187 -121
46 -22 137 -79 202 -127 112 -83 232 -162 291 -191 14 -7 49 -36 78 -66 53
-54 77 -68 172 -105 69 -26 86 -26 145 -1 26 11 55 20 66 20 11 0 30 17 46 42
l28 42 2 290 c1 212 5 300 15 324 11 28 11 34 -2 42 -12 8 -11 11 7 16 25 7
31 30 36 123 l2 54 45 16 c25 9 48 20 52 26 4 5 5 40 3 78 -4 66 -3 69 30 101
l33 33 -5 190 c-5 144 -3 199 8 229 7 21 12 42 11 47 -1 4 8 7 20 7 35 0 101
-42 108 -68 3 -12 19 -31 35 -41 17 -11 70 -56 120 -100 49 -45 95 -81 102
-81 7 0 40 -33 72 -72 49 -59 70 -77 116 -95 30 -13 63 -23 73 -23 31 0 92
-49 92 -74 0 -39 37 -74 95 -91 54 -16 135 -67 135 -85 0 -17 70 -89 147 -152
72 -59 150 -135 208 -206 83 -100 267 -251 343 -282 46 -18 131 -7 184 24 69
41 153 127 177 183 6 11 15 24 20 28 14 8 66 118 80 170 6 22 11 62 11 88 0
26 7 64 16 85 25 57 34 100 40 182 3 41 10 100 16 130 5 30 11 63 12 72 1 10
5 21 9 24 4 4 7 15 7 24 0 20 24 43 33 33 11 -10 60 -11 73 -1 18 13 61 -28
68 -67 8 -41 29 -65 58 -65 50 0 130 -74 164 -151 14 -31 79 -96 114 -114 26
-13 90 -87 90 -103 0 -27 45 -111 63 -120 12 -5 48 -22 80 -37 50 -23 61 -34
78 -72 10 -25 19 -50 19 -57 0 -7 11 -23 25 -36 14 -13 25 -27 25 -31 0 -4 25
-44 55 -89 30 -45 55 -85 55 -88 0 -4 14 -25 30 -46 17 -22 30 -44 30 -49 0
-22 37 -86 79 -136 54 -65 116 -111 148 -111 17 0 26 -8 33 -27 6 -16 15 -37
20 -48 6 -11 12 -30 15 -43 2 -12 7 -27 11 -33 3 -6 13 -43 21 -82 8 -39 21
-84 29 -100 8 -15 24 -69 34 -119 11 -50 22 -93 24 -95 2 -3 14 5 25 16 l20
20 11 -37 c5 -20 10 -48 10 -62 0 -14 9 -62 19 -107 10 -45 17 -84 14 -87 -13
-13 -7 -140 10 -211 16 -68 29 -263 28 -427 0 -16 4 -28 9 -28 6 0 10 -14 10
-32 0 -36 48 -138 64 -135 6 1 14 7 18 12 5 6 8 5 8 -2 0 -7 6 -13 14 -13 8 0
17 6 19 13 10 23 7 -32 -2 -57 -7 -17 -7 -26 2 -30 7 -2 4 -5 -5 -5 -10 -1
-18 4 -18 9 0 6 -5 10 -11 10 -6 0 -18 7 -26 16 -15 15 -17 13 -27 -18 -7 -18
-8 -34 -5 -36 4 -2 4 -15 0 -30 -4 -15 -4 -40 0 -57 4 -16 7 -23 8 -14 0 9 7
19 14 22 7 2 14 20 15 38 3 41 17 58 35 40 6 -7 8 -12 2 -11 -22 5 -25 -1 -14
-21 9 -17 8 -20 -3 -14 -7 3 -6 1 3 -7 22 -18 32 -73 15 -87 -7 -6 -17 -7 -21
-3 -5 4 -5 1 0 -7 5 -8 9 -28 10 -45 1 -17 1 -26 -2 -19 -6 16 -53 -34 -53
-57 0 -11 7 -20 15 -20 8 0 24 -9 35 -20 11 -11 23 -21 27 -22 5 -2 6 -7 3
-13 -3 -9 -5 -29 -12 -130 -1 -11 0 -33 1 -50 5 -55 1 -96 -9 -90 -12 8 -12 8
-1 -33 7 -24 7 -31 -2 -25 -7 4 -7 1 1 -10 30 -36 -2 -139 -40 -129 -10 2 -18
0 -18 -5 0 -8 11 -11 55 -15 6 -1 11 -14 12 -30 1 -16 -2 -26 -7 -23 -5 3 -11
1 -14 -4 -3 -5 1 -11 9 -14 9 -4 13 -17 12 -36 -1 -16 -6 -27 -11 -23 -5 3 -7
-11 -3 -32 3 -22 2 -34 -4 -31 -15 10 -10 -2 8 -20 14 -14 14 -20 4 -37 -10
-16 -10 -22 -1 -28 18 -11 7 -35 -16 -35 -14 0 -18 -6 -17 -25 6 -64 4 -123
-4 -129 -5 -3 -14 -17 -20 -31 -8 -17 -12 -19 -12 -9 -1 11 -9 16 -25 15 -16
-1 -21 -5 -15 -12 5 -6 12 -32 15 -57 6 -44 5 -46 -20 -53 -31 -8 -33 -17 -5
-35 19 -13 19 -15 4 -34 -9 -11 -13 -14 -9 -6 5 10 3 12 -5 7 -7 -4 -11 -15
-10 -24 1 -10 -4 -30 -11 -47 -7 -16 -13 -33 -12 -37 1 -5 -3 -8 -8 -8 -22 0
10 -38 40 -48 16 -6 30 -16 30 -22 0 -6 -5 -8 -11 -4 -8 4 -9 0 -4 -15 4 -14
2 -21 -7 -21 -11 0 -11 -2 0 -9 10 -6 7 -13 -13 -28 -25 -18 -26 -20 -11 -36
16 -16 15 -16 -16 -12 l-33 5 35 -11 c19 -7 29 -14 23 -16 -7 -3 -13 -18 -13
-34 0 -18 4 -28 10 -24 18 11 11 -4 -12 -25 -20 -18 -21 -24 -10 -52 8 -21 8
-36 2 -42 -7 -7 -10 -6 -10 2 0 7 -4 12 -10 12 -5 0 -10 -5 -10 -12 0 -6 -7
-20 -17 -30 -9 -11 -11 -18 -5 -18 7 0 12 -6 12 -14 0 -7 7 -19 15 -26 20 -16
19 -27 -2 -34 -18 -6 -29 -66 -12 -66 4 0 7 -9 6 -19 0 -10 -6 -17 -12 -15
-26 10 -34 -14 -36 -104 -1 -64 -6 -95 -15 -103 -18 -15 -18 -68 0 -75 17 -7
10 -34 -7 -31 -7 1 -10 -5 -8 -13 2 -8 3 -24 2 -35 -1 -11 -2 -33 -3 -48 -1
-23 -5 -28 -19 -24 -12 3 -19 0 -19 -9 0 -8 9 -14 20 -14 11 0 21 -6 21 -12 1
-7 5 1 9 17 l8 30 1 -32 c1 -20 -5 -35 -16 -41 -12 -7 -16 -24 -16 -68 0 -68
8 -141 18 -166 4 -11 3 -18 -5 -18 -6 0 -8 -5 -4 -12 5 -8 0 -7 -11 2 -17 14
-18 13 -13 -5 3 -12 -2 -27 -10 -35 -11 -10 -12 -15 -4 -18 7 -2 12 -12 12
-22 0 -10 5 -22 10 -25 6 -4 7 -12 3 -18 -12 -19 -12 -38 -1 -31 7 4 8 -10 4
-42 -10 -77 -9 -96 6 -105 7 -5 10 -9 6 -10 -5 -1 -12 -3 -18 -4 -5 -1 -13 -3
-16 -4 -4 0 1 -12 10 -26 12 -19 14 -30 6 -44 -7 -14 -7 -22 0 -26 6 -4 11
-23 11 -43 0 -57 1 -151 0 -164 0 -7 2 -49 5 -94 5 -65 3 -84 -9 -96 -14 -14
-14 -18 -1 -37 14 -20 12 -25 -11 -22 -5 1 -1 -6 10 -14 17 -14 18 -18 5 -28
-17 -13 -19 -35 -5 -56 5 -9 5 -16 -2 -18 -11 -4 -5 -53 7 -53 4 0 5 -11 2
-25 -2 -14 -9 -25 -14 -25 -6 0 -4 -8 3 -17 12 -14 12 -16 -1 -10 -10 5 -9 3
2 -4 14 -11 14 -15 1 -35 -8 -13 -14 -45 -14 -76 1 -59 1 -76 0 -132 0 -22 4
-42 8 -45 4 -3 9 -26 10 -51 1 -25 4 -56 6 -70 2 -14 0 -30 -5 -36 -4 -6 -4
-24 1 -41 6 -21 5 -35 -2 -42 -8 -8 -7 -11 4 -11 9 -1 6 -7 -10 -20 -19 -17
-21 -23 -11 -35 10 -12 9 -19 -2 -37 -20 -31 -29 -93 -16 -106 8 -8 8 -15 -1
-26 -7 -8 -10 -20 -6 -26 4 -6 1 -18 -6 -26 -18 -21 -19 -40 -7 -75 6 -16 15
-27 21 -23 7 3 5 0 -4 -8 -9 -7 -14 -19 -11 -26 2 -7 -2 -20 -10 -29 -11 -15
-11 -16 5 -10 13 5 17 1 17 -17 0 -14 -6 -27 -12 -29 -10 -4 -9 -8 2 -16 11
-8 11 -11 2 -11 -9 0 -12 -18 -11 -67 2 -63 17 -101 34 -85 4 4 3 -3 -4 -15
-6 -12 -12 -50 -13 -83 -1 -34 -5 -63 -8 -65 -11 -7 -4 -63 9 -79 7 -9 11 -22
8 -30 -3 -8 1 -17 9 -20 11 -4 12 -10 4 -25 -6 -11 -10 -24 -9 -28 5 -28 -3
-73 -11 -68 -5 3 -10 -1 -10 -10 0 -9 4 -14 9 -11 5 3 11 -1 14 -8 3 -8 1 -17
-6 -19 -8 -3 -5 -10 8 -21 11 -8 15 -16 8 -16 -6 0 -16 -12 -22 -27 -8 -21
-10 -22 -7 -5 2 12 0 20 -5 16 -13 -8 -11 -40 4 -56 14 -15 16 -40 3 -49 -12
-9 -19 -87 -10 -108 11 -24 12 -51 3 -51 -5 0 -9 -7 -9 -16 0 -8 4 -12 10 -9
12 8 11 14 16 -125 3 -63 5 -126 6 -140 3 -36 -11 -112 -23 -126 -7 -8 -5 -17
6 -27 23 -24 19 -66 -7 -77 -13 -5 -19 -9 -14 -9 6 -1 2 -7 -7 -14 -22 -15
-13 -77 10 -77 12 0 13 -3 3 -15 -13 -16 -6 -35 15 -35 15 0 14 -21 -1 -41
-20 -25 -23 -47 -8 -53 16 -6 19 -26 3 -26 -5 0 -7 5 -3 12 4 6 3 8 -3 5 -6
-4 -9 -22 -7 -39 3 -18 5 -49 4 -68 0 -26 3 -31 10 -20 9 14 10 13 10 -15 0
-3 -3 -4 -6 -2 -3 1 -10 -6 -16 -16 -7 -14 -5 -24 9 -39 10 -12 13 -18 6 -15
-18 11 -22 -16 -6 -35 13 -14 13 -21 2 -47 -7 -16 -17 -27 -21 -25 -4 3 -8 -2
-8 -10 0 -10 -6 -13 -15 -10 -11 5 -14 2 -8 -12 3 -11 11 -22 17 -26 8 -6 8
-10 1 -15 -10 -8 -17 -39 -19 -93 0 -14 -7 -31 -16 -37 -13 -11 -13 -14 0 -23
12 -8 13 -13 2 -30 -8 -14 -9 -26 -3 -38 6 -11 6 -24 0 -33 -12 -19 -11 -66 1
-74 6 -4 8 -10 5 -15 -3 -5 -1 -11 4 -14 12 -8 2 -46 -11 -43 -6 1 -19 -25
-30 -58 -11 -33 -26 -72 -34 -86 -14 -28 -12 -76 7 -110 9 -18 9 -25 -2 -33
-15 -12 -21 -34 -22 -83 0 -18 -4 -33 -9 -33 -4 0 -8 -7 -8 -15 0 -8 9 -15 20
-15 23 0 26 -10 8 -28 -9 -9 -9 -12 0 -12 13 0 -26 -69 -62 -108 -19 -22 -20
-24 -3 -33 19 -11 25 -83 7 -94 -5 -3 -10 -17 -10 -30 0 -13 -4 -27 -10 -30
-5 -3 -10 -15 -10 -26 0 -11 -8 -31 -17 -46 -16 -24 -16 -26 1 -39 10 -7 19
-24 20 -38 0 -14 5 -26 9 -26 5 0 6 -4 2 -9 -3 -5 4 -11 15 -13 12 -2 21 -7
22 -13 0 -5 24 -19 52 -31 28 -12 50 -26 49 -32 -2 -7 4 -9 14 -5 10 4 14 2
10 -4 -10 -16 68 -18 638 -18 496 0 593 4 581 23 -3 5 8 16 24 25 30 18 88 93
108 140 7 15 12 46 12 68 0 22 5 61 11 87 5 26 14 65 19 87 32 144 43 185 52
185 5 0 7 4 4 9 -3 4 6 23 19 41 14 19 25 41 25 50 0 9 9 25 19 34 10 10 17
25 14 35 -3 11 2 21 11 24 11 4 16 19 16 45 0 22 7 57 16 78 9 22 15 40 14 42
-4 5 12 69 25 97 7 17 18 58 24 93 7 34 23 79 36 99 14 19 25 50 25 68 0 17 3
35 8 39 4 4 8 24 8 44 2 48 7 66 23 85 7 9 14 22 15 29 1 7 5 19 9 26 5 6 5
17 2 22 -3 6 -3 16 2 23 21 32 32 81 20 89 -8 5 -6 13 8 28 15 17 17 25 8 39
-6 10 -8 22 -3 27 4 5 10 77 13 161 3 84 10 160 15 170 5 10 12 56 16 103 4
46 10 87 14 90 4 3 8 16 9 30 7 80 10 97 17 108 4 7 4 12 0 12 -4 0 0 8 8 18
13 15 19 35 33 117 2 11 7 31 13 45 5 14 7 31 5 37 -3 7 3 20 11 29 9 8 16 23
16 33 0 9 4 21 9 26 6 6 12 23 15 38 3 16 9 34 14 40 6 7 22 44 37 82 26 65
58 122 95 169 36 45 196 206 205 206 6 0 34 23 63 50 29 28 62 50 73 50 11 0
22 7 25 15 4 8 11 15 16 15 5 0 21 9 35 20 14 11 34 20 44 20 11 0 19 4 19 9
0 5 12 12 26 15 25 7 92 50 106 70 9 13 69 -5 79 -24 4 -8 13 -36 21 -62 7
-28 15 -42 19 -35 4 6 12 68 19 137 7 69 21 154 32 190 18 57 20 84 15 235 -3
93 -8 180 -12 193 -8 25 -30 29 -39 7 -9 -24 -30 -17 -50 18 -21 37 -29 106
-14 124 16 19 0 98 -23 119 -17 16 -22 16 -29 4 -6 -8 -10 -22 -10 -30 0 -9
-4 -20 -9 -25 -6 -6 -12 -39 -14 -74 -4 -66 -14 -81 -55 -81 -13 0 -60 -15
-103 -34 -64 -28 -99 -52 -180 -128 -56 -51 -123 -122 -150 -158 -27 -36 -74
-88 -104 -114 -44 -37 -66 -69 -105 -144 -27 -54 -74 -126 -106 -162 -31 -36
-62 -78 -69 -95 -6 -16 -29 -74 -50 -127 -30 -78 -42 -99 -64 -108 -15 -6 -34
-25 -43 -43 -8 -18 -27 -54 -41 -82 -14 -27 -37 -77 -50 -109 -35 -89 -65 -97
-102 -27 -17 34 -35 181 -36 296 0 50 -5 128 -10 175 -5 47 -12 125 -15 175
-3 49 -10 93 -15 96 -6 3 -9 58 -8 127 1 122 1 122 25 122 23 0 28 10 27 48
-1 6 3 12 8 12 5 0 9 11 9 24 0 14 4 27 9 30 5 3 12 36 16 72 4 37 14 90 22
118 8 28 16 89 17 136 2 57 8 96 19 117 10 18 16 36 15 40 -1 4 6 33 14 63 9
30 19 72 23 93 3 20 11 41 18 47 69 55 66 50 81 156 11 84 19 108 44 143 25
35 30 48 26 84 -14 125 -16 268 -3 283 10 13 10 17 -2 25 -12 8 -11 11 3 23
16 12 17 35 15 249 l-2 237 -42 39 -43 39 0 344 0 345 38 26 c34 24 38 32 42
79 4 46 5 543 1 918 -1 69 -1 476 -1 905 1 879 -3 1350 -10 1351 -3 0 -16 7
-30 14 -14 8 -28 13 -32 12 -10 -3 -9 260 1 483 8 181 4 295 -10 295 -5 0 -9
-10 -9 -22 -1 -29 -21 -56 -37 -51 -7 3 -13 -3 -13 -12 0 -9 -4 -13 -10 -10
-5 3 -10 36 -10 73 0 37 -7 112 -15 167 -8 55 -15 136 -15 179 0 70 -3 85 -27
119 -23 33 -27 50 -28 111 -1 40 -5 77 -8 83 -11 18 -37 230 -37 302 0 73 -5
85 -38 95 -15 5 -24 3 -28 -8 -3 -9 -9 -16 -13 -16 -11 0 -29 66 -36 129 -3
30 -13 67 -20 82 -8 15 -31 76 -51 136 -20 59 -48 124 -63 143 -24 32 -26 43
-26 135 -1 148 0 145 -35 145 -22 0 -30 -5 -30 -17 0 -10 -3 -13 -8 -7 -12 13
-59 141 -71 189 -10 45 -52 163 -64 183 -5 7 -18 10 -31 6 -33 -8 -59 23 -75
88 -8 29 -26 80 -41 113 -15 33 -35 89 -44 124 -24 96 -54 157 -68 143 -22
-22 -36 -12 -52 36 -21 63 -34 173 -30 252 3 77 -13 217 -29 245 -6 11 -15 92
-19 180 -22 454 -36 570 -76 627 -22 32 -31 60 -36 109 -7 63 -6 66 17 76 14
6 40 25 59 42 38 33 86 53 168 72 66 14 85 23 129 62 34 29 36 30 122 24 92
-7 107 -2 90 31 -19 36 7 52 104 67 50 8 125 21 168 29 43 8 84 13 92 10 7 -3
18 3 23 13 37 70 43 374 9 427 -10 15 -24 25 -30 23 -47 -19 -47 -19 -47 2 0
12 -7 24 -15 27 -7 3 -22 27 -31 52 -22 62 -79 195 -108 252 -21 40 -27 45
-62 48 -50 4 -114 64 -144 136 -24 56 -56 96 -77 96 -20 0 -57 26 -108 76 -42
42 -65 91 -65 142 0 36 -39 68 -77 63 -6 -1 -32 12 -57 29 -37 26 -47 39 -60
84 -17 57 -49 86 -132 121 -22 9 -50 26 -64 39 -27 25 -69 50 -115 67 l-30 12
28 10 c15 6 27 14 27 19 0 4 -21 20 -47 35 -27 15 -68 44 -93 64 -25 20 -60
44 -79 54 -20 10 -29 20 -23 24 19 12 9 53 -21 82 -22 22 -35 28 -57 24 -24
-4 -34 3 -74 49 -25 30 -46 63 -46 74 0 48 -8 53 -75 46 l-63 -7 -54 50 c-57
53 -133 99 -213 128 -27 10 -54 22 -60 27 -5 4 -24 8 -41 8 -48 0 -51 19 -4
26 23 4 40 12 40 20 0 14 -51 54 -70 54 -6 0 -30 11 -53 24 -23 14 -71 32
-107 41 -81 21 -150 59 -150 84 0 11 -11 24 -27 30 -16 7 -47 23 -70 37 -24
14 -84 36 -133 50 -127 33 -131 37 -124 82 7 46 -11 66 -51 56 -30 -8 -43 -30
-26 -47 21 -21 12 -45 -20 -52 -40 -9 -70 16 -52 43 15 25 -2 55 -28 47 -12
-4 -21 -1 -25 9 -10 25 -103 64 -184 76 -104 16 -219 48 -259 73 -24 15 -60
23 -125 28 -50 4 -104 12 -120 18 l-29 12 22 23 c20 22 20 23 4 38 -13 11 -50
17 -138 21 -130 6 -204 23 -241 58 -20 19 -31 21 -96 17 -40 -3 -95 -1 -123 3
-27 5 -80 11 -118 15 -76 6 -103 24 -86 55 5 11 7 28 4 39 -6 17 -14 19 -98
14 -51 -2 -111 -7 -135 -10 -23 -3 -90 -2 -148 2 -102 7 -106 8 -115 33 -22
56 -34 61 -148 61 -126 1 -403 16 -448 26 -41 8 -50 31 -18 46 39 18 30 36
-22 44 -27 4 -149 4 -273 1 -235 -6 -383 0 -374 15 8 13 -80 47 -149 57 -34 5
-127 9 -206 9 -108 1 -146 4 -152 14 -13 21 9 34 24 14 12 -17 15 -17 29 -2
16 15 33 78 45 164 l6 42 48 0 c52 0 52 0 64 75 3 22 15 65 26 96 10 30 23 89
29 130 14 108 35 175 66 216 22 30 63 141 64 177 0 5 16 6 35 3 31 -5 37 -2
49 21 16 31 10 218 -7 229 -5 3 -24 7 -43 8 -22 1 -43 13 -65 34 -28 28 -31
36 -21 52 20 31 14 37 -52 58 -36 11 -82 31 -103 44 -34 23 -52 25 -183 31
-151 5 -243 20 -395 60 -111 30 -296 46 -525 46 -177 0 -223 5 -218 22 5 13
47 36 82 43 22 5 26 9 17 18 -13 13 -443 19 -558 8z m2004 -586 c2 -43 0 -64
-7 -60 -5 3 -10 36 -10 72 0 84 12 75 17 -12z m-239 -667 c4 -22 -33 -59 -53
-52 -17 7 -10 53 9 66 17 12 40 4 44 -14z m-8553 -1608 c3 -5 -1 -10 -10 -10
-9 0 -13 5 -10 10 3 6 8 10 10 10 2 0 7 -4 10 -10z m-55 -20 c0 -5 -4 -10 -10
-10 -5 0 -10 5 -10 10 0 6 5 10 10 10 6 0 10 -4 10 -10z m13767 -472 c-3 -8
-6 -5 -6 6 -1 11 2 17 5 13 3 -3 4 -12 1 -19z m1383 -1863 c0 -8 -7 -15 -16
-15 -14 0 -14 3 -4 15 7 8 14 15 16 15 2 0 4 -7 4 -15z m-18176 -1246 c-6 -11
-24 -2 -24 11 0 5 7 7 15 4 8 -4 12 -10 9 -15z m18197 -2348 c3 -29 -1 -75 -7
-101 l-7 -25 -7 25 c-5 14 -8 48 -9 77 -1 43 2 51 14 47 8 -4 16 -14 16 -23z
m-19110 -604 c-13 -13 -15 52 -3 104 6 29 7 25 10 -30 2 -36 -2 -69 -7 -74z
m19372 -1739 l-11 -33 -1 45 c-1 33 2 41 11 32 8 -8 8 -20 1 -44z m-1333 -868
c0 -5 -7 -10 -15 -10 -8 0 -15 5 -15 10 0 6 7 10 15 10 8 0 15 -4 15 -10z
m1340 -639 c0 -22 -4 -43 -10 -46 -6 -4 -10 12 -10 39 0 25 5 46 10 46 6 0 10
-18 10 -39z m-17910 -1311 c0 -5 -2 -10 -4 -10 -3 0 -8 5 -11 10 -3 6 -1 10 4
10 6 0 11 -4 11 -10z m16263 -3225 c-7 -21 -13 -19 -13 6 0 11 4 18 10 14 5
-3 7 -12 3 -20z m1 -580 c-4 -8 -8 -15 -10 -15 -2 0 -4 7 -4 15 0 8 4 15 10
15 5 0 7 -7 4 -15z m-19 -664 c3 -5 2 -12 -3 -15 -5 -3 -9 1 -9 9 0 17 3 19
12 6z m-185 -1601 c0 -5 -4 -10 -10 -10 -5 0 -10 5 -10 10 0 6 5 10 10 10 6 0
10 -4 10 -10z"/>
<path d="M18832 32940 c0 -14 2 -19 5 -12 2 6 2 18 0 25 -3 6 -5 1 -5 -13z"/>
<path d="M18820 32364 c0 -8 5 -12 10 -9 6 4 8 11 5 16 -9 14 -15 11 -15 -7z"/>
<path d="M35540 32238 c0 -9 5 -20 10 -23 13 -8 13 5 0 25 -8 13 -10 13 -10
-2z"/>
<path d="M31679 32210 c-15 -8 -317 -41 -554 -60 -77 -7 -162 -16 -190 -21
-27 -5 -140 -20 -250 -34 -208 -27 -275 -40 -275 -54 0 -5 26 -15 58 -24 l57
-14 -48 -22 c-26 -12 -80 -28 -120 -36 -84 -16 -274 -68 -331 -91 -43 -17 -73
-38 -144 -100 -26 -22 -75 -60 -109 -83 -34 -23 -75 -58 -90 -77 -15 -20 -58
-68 -95 -105 -37 -38 -70 -79 -73 -92 -2 -12 -12 -96 -21 -187 -9 -91 -20
-172 -24 -180 -22 -44 11 -219 56 -299 15 -25 38 -66 52 -91 38 -69 49 -77
121 -100 36 -12 75 -30 86 -40 22 -20 84 -45 132 -53 15 -3 61 -13 102 -22 99
-23 244 -17 324 14 64 25 72 38 25 43 -35 3 297 79 432 99 41 6 85 17 98 25
30 19 47 63 34 85 -9 14 -2 19 46 33 85 24 220 53 282 61 83 10 280 44 322 55
42 12 43 34 2 44 -13 4 -33 15 -44 26 -24 24 -20 26 110 40 52 6 133 17 180
24 47 8 139 17 205 20 66 3 163 13 215 21 270 42 325 48 440 48 118 0 135 -2
323 -51 206 -54 238 -66 297 -113 19 -15 105 -62 190 -104 85 -42 171 -85 190
-94 19 -10 54 -43 77 -73 39 -51 53 -60 160 -108 l118 -53 140 0 c160 0 207
12 226 60 14 36 3 192 -18 241 -8 20 -23 67 -33 104 -20 78 -30 93 -68 103
-45 11 -70 44 -103 137 -33 93 -54 117 -118 139 -18 6 -40 26 -52 47 -62 105
-134 204 -162 224 -18 11 -52 40 -77 64 -25 23 -74 60 -110 82 -36 21 -70 49
-76 61 -7 13 -29 41 -50 62 -32 33 -56 45 -135 70 -53 16 -113 38 -135 49 -21
11 -45 20 -54 20 -26 0 -113 31 -131 47 -10 8 -14 23 -11 38 4 22 -2 28 -41
45 -24 11 -89 27 -143 36 -55 9 -146 25 -204 35 -112 21 -399 44 -695 55 -99
3 -208 12 -241 19 -34 7 -68 9 -75 5z"/>
<path d="M22646 32193 c-2 -2 -107 -6 -233 -8 -291 -4 -564 -27 -723 -59 -69
-14 -172 -32 -230 -41 l-105 -15 -48 -50 c-26 -28 -53 -50 -59 -50 -6 0 -62
-23 -125 -50 -62 -28 -142 -60 -178 -71 -65 -20 -135 -72 -135 -101 0 -8 -8
-22 -17 -30 -24 -21 -99 -58 -116 -58 -8 0 -36 -23 -63 -51 -27 -28 -65 -58
-84 -67 -32 -16 -55 -49 -179 -261 -5 -7 -21 -15 -37 -17 -40 -4 -84 -59 -112
-142 -28 -80 -61 -132 -84 -132 -49 0 -71 -32 -122 -174 -32 -87 -36 -110 -36
-193 0 -86 2 -96 24 -118 36 -36 190 -70 218 -48 7 6 40 13 73 16 59 5 201 49
264 81 17 9 47 38 65 64 47 64 67 78 253 164 89 42 184 91 210 110 86 62 117
77 203 97 47 10 117 29 155 40 152 46 380 48 580 5 120 -26 175 -33 328 -44
140 -9 456 -44 505 -55 12 -3 22 -12 22 -20 0 -8 6 -15 13 -15 26 -1 -19 -18
-65 -24 -45 -7 -59 -18 -40 -30 16 -10 196 -44 289 -55 130 -16 385 -78 400
-98 7 -8 10 -28 6 -43 -7 -39 22 -56 132 -74 135 -21 298 -57 312 -68 7 -6 10
-14 8 -19 -15 -24 138 -65 295 -79 97 -8 139 -6 175 11 11 5 63 24 115 43 126
44 261 104 281 125 21 21 88 174 100 226 12 57 11 353 -2 438 -6 40 -19 102
-30 138 -17 59 -27 74 -87 131 -37 35 -81 80 -97 99 -36 41 -162 145 -234 193
-47 32 -308 126 -350 126 -35 0 -176 41 -190 55 -13 13 -11 15 17 21 48 10 38
36 -20 50 -61 16 -330 54 -376 54 -21 0 -73 7 -117 14 -86 15 -241 30 -505 47
-91 5 -182 12 -202 13 -20 2 -39 2 -42 -1z"/>
<path d="M35515 32181 c-6 -11 9 -23 19 -14 9 9 7 23 -3 23 -6 0 -12 -4 -16
-9z"/>
<path d="M35530 32080 c18 -12 30 -13 30 -2 0 4 -10 9 -22 9 -18 2 -20 0 -8
-7z"/>
<path d="M35510 31795 c7 -8 16 -12 21 -9 13 8 1 24 -18 24 -13 0 -13 -3 -3
-15z"/>
<path d="M18850 31780 c0 -6 7 -10 15 -10 8 0 15 2 15 4 0 2 -7 6 -15 10 -8 3
-15 1 -15 -4z"/>
<path d="M35472 31760 c7 -21 38 -25 38 -6 0 9 -5 16 -11 16 -5 0 -7 -6 -3
-12 5 -8 0 -7 -11 2 -16 13 -18 13 -13 0z"/>
<path d="M35492 31661 c-11 -7 -11 -9 1 -14 9 -3 18 1 21 9 6 16 -2 18 -22 5z"/>
<path d="M23833 29855 c0 -8 4 -15 9 -15 4 0 8 4 8 9 0 6 -4 12 -8 15 -5 3 -9
-1 -9 -9z"/>
<path d="M23979 29853 c-1 -4 -1 -12 0 -17 1 -5 -4 -4 -12 3 -12 9 -16 8 -20
-3 -4 -9 -14 -12 -26 -9 -12 3 -29 -1 -38 -8 -13 -11 -15 -11 -9 -1 8 14 5 13
-53 -17 -12 -7 -21 -9 -18 -4 3 5 2 15 -2 22 -7 10 -14 10 -39 -3 -17 -9 -33
-12 -36 -7 -7 11 -66 -9 -66 -22 0 -5 10 -5 23 -2 12 3 18 3 12 -2 -5 -5 -13
-12 -16 -16 -3 -4 -16 3 -28 14 -21 19 -22 20 -19 3 2 -14 -4 -20 -22 -22 -23
-2 -24 -1 -7 11 26 21 21 30 -7 12 -19 -13 -25 -13 -28 -3 -6 16 -311 20 -342
5 -10 -5 -68 -10 -130 -12 -204 -7 -390 -15 -456 -21 -84 -8 -106 -10 -215
-18 -214 -16 -470 -83 -576 -152 -29 -18 -77 -38 -108 -45 -80 -16 -104 -23
-215 -63 -100 -36 -134 -58 -164 -108 -18 -31 -38 -40 -137 -64 -103 -24 -122
-37 -149 -104 -15 -34 -33 -59 -39 -53 -4 3 -7 2 -7 -3 0 -5 -8 -10 -17 -11
-27 -1 -139 -45 -218 -86 -74 -37 -98 -58 -143 -124 -108 -161 -137 -201 -162
-221 -38 -30 -113 -167 -105 -192 9 -28 -30 -80 -60 -80 -68 0 -137 -121 -149
-260 -19 -214 -21 -226 -41 -255 -30 -45 -28 -204 3 -300 12 -38 27 -89 33
-113 6 -26 19 -48 34 -58 42 -27 48 -11 41 100 -8 134 2 172 52 186 20 5 42
10 48 10 13 0 30 61 39 135 5 42 11 54 36 70 37 24 60 65 53 92 -3 11 -20 27
-38 36 -38 18 -53 52 -27 63 9 4 50 10 91 13 l75 6 18 60 c18 62 41 112 102
225 19 36 35 75 35 87 0 43 21 73 51 73 15 0 31 5 34 10 3 6 16 10 29 10 24 0
66 38 70 63 1 9 10 25 20 36 10 11 20 31 21 43 1 13 3 27 4 32 0 4 13 6 28 3
20 -4 31 1 46 19 10 13 25 24 32 24 22 0 100 43 87 48 -16 5 8 50 49 90 26 25
39 31 59 27 17 -3 43 5 80 25 71 38 115 59 223 105 97 42 113 55 67 55 -40 0
-51 27 -22 50 13 11 49 20 89 24 37 4 100 18 139 31 39 14 111 30 160 36 49 6
114 15 144 19 130 19 483 22 696 6 116 -9 242 -16 280 -16 38 0 94 -7 124 -15
30 -9 100 -25 155 -36 152 -31 149 -30 155 -68 5 -32 9 -35 75 -57 39 -13 124
-45 190 -72 97 -40 124 -55 142 -82 13 -18 21 -36 18 -40 -4 -6 67 -70 79 -70
23 0 180 -86 202 -112 16 -17 42 -44 57 -60 16 -15 32 -40 36 -55 8 -30 99
-92 137 -93 25 0 69 -63 78 -112 3 -18 24 -55 46 -82 22 -26 40 -55 40 -62 0
-17 44 -36 64 -28 11 4 18 -4 24 -28 6 -23 14 -32 25 -30 12 2 17 -4 17 -23 0
-14 9 -43 20 -65 11 -22 31 -73 44 -115 25 -77 102 -225 119 -225 5 0 7 16 5
37 -2 20 2 38 8 40 14 5 24 -28 24 -77 0 -22 11 -52 30 -80 21 -31 30 -58 30
-85 0 -22 7 -67 15 -100 11 -51 35 -257 35 -316 0 -9 6 -19 14 -22 15 -6 16
-2 42 136 7 35 15 34 38 -4 14 -23 17 -43 13 -77 -6 -54 12 -127 32 -127 8 0
19 9 25 19 6 11 18 27 26 36 47 52 62 75 65 97 3 27 33 53 53 46 7 -3 22 4 33
16 11 11 24 21 29 21 6 0 10 6 10 13 0 7 9 18 20 25 13 8 20 23 20 41 0 17 4
32 9 35 9 6 20 47 27 101 8 56 10 64 17 71 11 11 8 66 -3 59 -5 -3 -10 -2 -10
4 0 5 5 13 10 16 14 9 12 65 -3 95 -8 15 -10 41 -7 68 4 27 2 53 -7 69 -7 14
-13 38 -13 53 0 15 -6 33 -14 39 -8 7 -13 20 -11 30 2 12 -6 23 -21 32 -14 7
-22 19 -19 26 2 8 1 11 -4 8 -5 -3 -12 -1 -16 5 -3 5 -1 10 5 10 7 0 5 7 -4
16 -19 19 -22 84 -3 84 6 0 4 5 -6 11 -15 9 -16 13 -6 26 10 12 10 16 -2 24
-8 5 -20 9 -26 9 -7 0 -13 9 -13 20 0 11 7 20 15 20 8 0 15 -7 15 -16 0 -20
16 -10 23 15 3 13 1 18 -9 14 -10 -3 -13 8 -12 45 0 41 4 51 19 55 22 6 26 37
4 37 -8 0 -15 -4 -15 -8 0 -5 -6 -9 -12 -10 -7 0 -24 -4 -38 -8 -15 -4 -22 -3
-17 2 5 5 13 10 18 10 5 1 14 2 19 3 15 2 12 20 -5 37 -19 20 -19 34 0 34 12
0 14 4 6 18 -7 13 -5 20 12 29 22 11 22 11 -6 24 -25 11 -31 21 -28 42 0 4 -4
6 -11 5 -7 -2 -14 9 -17 23 -4 18 -12 25 -23 23 -22 -3 -23 6 -3 32 14 19 14
19 15 -1 0 -16 3 -15 15 9 9 17 12 33 6 40 -9 11 -25 66 -23 77 1 4 -6 6 -16
5 -17 -1 -19 15 -22 158 0 19 -7 30 -20 33 -11 3 -22 13 -25 23 -3 9 -14 25
-25 35 -11 10 -20 29 -20 42 0 12 -5 23 -11 23 -5 0 -7 5 -4 10 3 6 1 10 -5
10 -6 0 -10 8 -8 18 2 10 -2 16 -10 14 -8 -1 -11 2 -7 7 7 13 -45 40 -64 33
-11 -3 -12 2 -7 22 5 19 2 28 -9 32 -8 4 -15 12 -15 20 0 8 -6 11 -15 8 -8 -4
-12 -11 -8 -18 4 -7 3 -8 -5 -1 -5 6 -12 19 -14 30 -2 11 -16 26 -31 33 -15 7
-27 20 -27 29 0 9 -6 13 -14 10 -8 -3 -28 8 -45 26 -52 54 -67 67 -79 67 -18
0 -92 41 -92 51 0 5 -20 14 -44 20 -25 6 -47 16 -49 23 -3 6 -22 13 -43 14
-21 2 -47 11 -58 20 -11 9 -16 11 -12 5 12 -20 -8 -15 -27 7 -9 11 -24 20 -32
20 -8 0 -15 5 -15 10 0 17 -27 11 -34 -7 -6 -14 -8 -14 -22 5 -16 24 -44 30
-44 10 0 -9 -3 -8 -9 2 -6 8 -7 18 -5 22 3 4 -1 8 -8 8 -8 0 -24 7 -37 16 -25
18 -99 26 -107 12 -8 -12 -64 -10 -64 3 0 7 -16 9 -50 4 -34 -5 -50 -3 -50 4
0 22 -20 11 -21 -11 0 -15 -2 -18 -6 -8 -7 19 -43 53 -44 43z m-499 -77 c0 -2
-7 -6 -15 -10 -8 -3 -15 -1 -15 4 0 6 7 10 15 10 8 0 15 -2 15 -4z m1926
-1363 c-10 -10 -19 5 -10 18 6 11 8 11 12 0 2 -7 1 -15 -2 -18z"/>
<path d="M30080 29820 c0 -5 -6 -7 -14 -4 -8 3 -28 -2 -46 -11 -17 -9 -45 -17
-60 -17 -16 -1 -29 -4 -28 -7 2 -22 -4 -32 -17 -28 -8 4 -17 2 -20 -3 -3 -5
-12 -7 -19 -4 -8 3 -17 1 -21 -5 -3 -6 -17 -11 -30 -11 -12 0 -26 -7 -29 -16
-5 -14 -9 -14 -23 -3 -15 12 -16 12 -10 -3 3 -10 3 -17 -1 -17 -4 1 -20 1 -37
0 -22 -1 -26 -4 -16 -10 12 -8 9 -11 -12 -16 -15 -4 -36 -5 -47 -2 -15 4 -24
-3 -36 -28 -11 -23 -25 -36 -45 -40 -16 -4 -34 -15 -39 -26 -6 -10 -17 -19
-25 -19 -9 0 -12 -6 -9 -15 4 -10 0 -15 -10 -15 -9 0 -21 -10 -26 -22 -5 -13
-9 -17 -9 -10 -1 6 -4 12 -8 12 -13 0 -83 -66 -83 -77 0 -11 -59 -43 -79 -43
-14 0 -34 -38 -26 -50 3 -6 -3 -10 -14 -10 -14 0 -27 -13 -41 -39 -11 -22 -24
-42 -30 -46 -14 -9 -12 -42 3 -48 7 -3 5 -6 -5 -6 -10 -1 -18 -7 -18 -15 0
-10 -7 -13 -21 -11 -18 4 -19 2 -7 -12 11 -15 11 -16 -4 -10 -19 7 -45 -27
-29 -37 5 -4 11 -1 13 6 6 16 28 1 28 -19 0 -11 -6 -14 -25 -9 -14 4 -25 2
-25 -4 0 -5 -10 -10 -21 -10 -17 0 -20 -5 -17 -25 3 -13 1 -26 -5 -28 -6 -2
-5 -12 3 -26 10 -19 10 -22 -2 -15 -10 6 -11 5 -1 -7 10 -12 10 -18 1 -27 -9
-9 -8 -12 6 -12 12 0 16 -6 14 -20 -3 -22 -23 -29 -23 -8 0 6 -6 13 -12 16 -7
2 -13 -3 -13 -12 0 -9 0 -18 0 -21 0 -3 -9 -14 -20 -25 -11 -11 -20 -31 -20
-44 0 -14 -5 -28 -10 -31 -6 -4 -8 -10 -5 -15 3 -5 1 -11 -4 -14 -5 -3 -7 -15
-4 -26 3 -11 1 -26 -5 -33 -9 -11 -10 -36 -2 -57 1 -3 1 -13 0 -24 -1 -10 4
-23 12 -27 10 -7 10 -9 0 -9 -7 0 -11 -4 -8 -9 3 -5 0 -14 -8 -20 -8 -7 -12
-21 -9 -31 4 -13 0 -20 -9 -20 -8 0 -15 -7 -15 -15 0 -8 3 -15 7 -15 4 0 6
-15 4 -32 -3 -21 -1 -28 5 -19 11 16 16 7 25 -41 5 -27 3 -38 -6 -38 -8 0 -9
-3 -2 -10 5 -5 8 -30 6 -55 -3 -38 -7 -45 -26 -45 -11 0 -16 -4 -11 -8 15 -10
11 -47 -4 -44 -17 4 -40 -27 -41 -53 0 -17 -2 -17 -10 -5 -7 11 -10 0 -10 -38
0 -33 -4 -51 -10 -47 -10 6 -14 -13 -11 -47 2 -12 -3 -16 -13 -12 -9 3 -16 2
-17 -2 0 -5 -3 -21 -5 -36 -2 -14 0 -29 5 -32 6 -4 4 -20 -5 -41 -16 -39 -18
-57 -4 -35 8 13 10 12 10 -2 0 -10 -4 -18 -8 -18 -4 0 -8 -13 -7 -29 0 -16 3
-27 7 -24 5 2 8 -1 8 -6 0 -6 -5 -11 -11 -11 -6 0 -8 -7 -5 -16 3 -9 9 -37 12
-62 3 -25 9 -53 14 -61 5 -10 3 -26 -8 -43 -15 -27 -15 -29 8 -50 14 -13 28
-22 32 -21 7 3 13 -16 20 -62 2 -12 12 -21 26 -23 12 -2 22 -10 22 -18 0 -8 6
-14 13 -15 12 -1 64 2 82 4 6 1 9 -4 7 -10 -1 -7 2 -13 7 -13 5 0 11 6 14 13
5 14 16 -12 43 -98 19 -63 46 -97 70 -88 8 3 12 9 9 13 -9 14 22 112 42 131
19 20 20 20 45 -6 l26 -25 10 42 c13 53 31 160 42 257 7 61 13 78 37 101 46
46 73 86 79 120 6 26 3 32 -15 37 -16 4 -21 13 -21 40 0 51 14 70 58 77 53 8
74 34 72 88 -5 77 -1 88 30 106 17 9 33 27 36 40 5 19 11 22 34 17 24 -5 29
-2 38 25 l11 31 -34 -7 c-30 -5 -33 -4 -28 15 8 31 29 44 63 39 27 -4 31 -1
40 31 5 20 28 58 50 85 22 26 40 56 40 67 0 45 60 109 103 109 9 0 22 8 29 18
7 10 25 22 39 25 27 7 69 39 69 53 1 5 14 25 30 44 23 26 33 31 41 23 9 -9 19
-1 41 33 43 64 125 133 175 145 28 8 51 23 72 49 22 27 46 43 83 56 29 9 76
30 104 46 29 16 107 45 175 64 68 20 128 38 133 42 6 3 -4 10 -22 16 -17 6
-31 16 -31 21 1 22 224 84 349 96 149 15 388 29 585 35 239 8 625 -24 736 -60
41 -13 97 -27 124 -30 126 -18 153 -39 95 -74 -23 -14 -27 -21 -18 -30 7 -7
16 -12 22 -12 5 0 40 -16 77 -35 38 -19 75 -35 85 -35 9 0 37 -10 63 -23 25
-13 51 -22 57 -20 6 2 19 -6 29 -17 14 -16 31 -20 75 -20 60 0 85 -14 75 -42
-11 -28 36 -88 91 -120 30 -16 54 -36 54 -44 0 -7 14 -23 30 -36 17 -12 30
-28 30 -35 0 -7 4 -13 9 -13 5 0 50 -36 100 -80 50 -44 94 -80 98 -80 4 -1 21
-12 38 -25 28 -23 32 -35 34 -102 1 -12 19 -42 40 -67 21 -25 41 -50 43 -57 3
-9 9 -8 26 2 19 12 26 12 50 -1 25 -15 27 -20 24 -66 -3 -48 -2 -52 26 -63 29
-12 46 -49 68 -146 4 -16 15 -48 24 -70 10 -22 21 -65 24 -95 4 -30 12 -86 17
-124 l11 -68 39 6 c54 9 63 -13 55 -119 -7 -88 3 -135 29 -135 21 0 54 76 62
143 4 33 14 62 30 80 16 21 23 42 24 75 2 106 -3 158 -17 180 -8 13 -19 55
-24 95 -12 100 -46 254 -65 302 -9 22 -45 67 -79 100 -49 46 -73 81 -105 149
-54 111 -96 178 -186 291 -40 50 -84 109 -99 133 -33 53 -72 77 -156 96 -145
33 -195 63 -206 123 -8 44 -63 76 -210 124 -95 30 -110 38 -141 76 -26 31 -48
47 -83 57 -26 8 -64 23 -86 34 -21 11 -99 39 -173 62 -74 23 -166 57 -205 76
-39 18 -84 36 -101 40 -16 4 -34 10 -40 14 -33 26 -540 89 -755 95 -534 15
-540 15 -540 0 0 -8 -5 -15 -11 -15 -6 0 -9 6 -6 14 5 12 -1 12 -40 0 -54 -16
-109 -18 -118 -4 -10 15 -25 2 -18 -16 5 -13 -1 -14 -33 -8 -22 4 -45 7 -53 7
-10 0 -9 4 4 13 9 7 23 10 31 7 8 -3 14 -1 14 3 0 5 -16 14 -35 20 -34 11 -40
8 -37 -17 1 -4 -8 -9 -18 -12 -12 -3 -20 0 -20 8 0 7 -11 15 -25 17 -14 3 -25
1 -25 -3 0 -5 -7 -6 -15 -3 -8 4 -15 1 -15 -6 0 -9 -4 -9 -17 1 -9 8 -24 13
-35 11 -10 -2 -21 4 -24 12 -9 23 -31 20 -39 -5 -5 -15 -10 -17 -19 -10 -18
15 -78 20 -99 9 -15 -8 -20 -5 -24 11 -6 23 -18 27 -28 11 -4 -6 -11 -8 -16
-5 -5 4 -9 2 -9 -4 0 -5 -12 -5 -32 2 -20 8 -32 8 -35 2 -1 -6 -23 -9 -48 -7
-25 2 -43 7 -41 11 3 4 -4 8 -15 8 -10 1 -19 -2 -19 -7z m-1210 -1745 c0 -8
-4 -15 -10 -15 -5 0 -10 7 -10 15 0 8 5 15 10 15 6 0 10 -7 10 -15z"/>
<path d="M19105 29590 c3 -5 8 -10 11 -10 2 0 4 5 4 10 0 6 -5 10 -11 10 -5 0
-7 -4 -4 -10z"/>
<path d="M31200 29231 c-6 -12 -8 -26 -5 -32 8 -12 88 -2 130 17 17 7 44 15
60 17 17 2 -9 5 -57 6 -47 0 -93 4 -101 7 -10 3 -20 -3 -27 -15z"/>
<path d="M31548 29243 c6 -2 18 -2 25 0 6 3 1 5 -13 5 -14 0 -19 -2 -12 -5z"/>
<path d="M21737 29189 c7 -7 15 -10 18 -7 3 3 -2 9 -12 12 -14 6 -15 5 -6 -5z"/>
<path d="M22490 29161 c-23 -14 -257 -68 -325 -76 -69 -8 -91 -18 -100 -44 -3
-10 -28 -32 -55 -49 -34 -21 -50 -38 -50 -52 0 -14 -7 -20 -22 -20 -30 0 -119
-44 -144 -72 -11 -12 -31 -40 -44 -62 -13 -21 -46 -53 -74 -71 -28 -18 -58
-41 -67 -51 -26 -29 -59 -101 -59 -126 0 -35 -24 -73 -43 -70 -10 2 -37 -13
-61 -32 -42 -35 -66 -84 -66 -135 0 -11 -14 -63 -30 -116 -27 -83 -32 -118
-42 -292 -13 -227 -13 -489 1 -587 5 -37 19 -85 30 -107 12 -22 21 -59 21 -82
0 -50 25 -139 48 -175 l16 -25 14 22 c21 31 48 26 76 -15 20 -30 24 -45 19
-83 -4 -38 -1 -50 17 -71 12 -14 33 -47 47 -75 33 -65 47 -80 113 -122 60 -38
130 -101 130 -118 0 -5 9 -21 20 -35 l20 -25 0 38 c0 34 2 37 28 37 37 0 104
-40 119 -70 7 -14 13 -39 13 -55 0 -43 41 -64 143 -75 126 -14 219 -41 245
-73 9 -10 61 -14 234 -18 464 -8 538 -3 538 37 0 20 38 33 150 51 100 16 190
53 190 78 0 10 -10 15 -27 16 -16 0 -37 4 -48 8 -12 5 -33 3 -51 -5 -17 -7
-71 -22 -120 -34 -49 -12 -96 -23 -105 -26 -18 -5 -67 37 -100 86 -13 20 -30
42 -37 50 -57 67 -57 66 -46 131 7 44 34 59 100 59 34 0 49 5 64 23 82 96 106
115 165 132 50 14 69 27 120 80 33 34 81 73 105 85 25 13 57 33 72 45 31 26
101 39 153 29 47 -8 86 -65 92 -132 4 -40 -1 -58 -31 -116 -34 -64 -35 -71
-25 -112 6 -24 9 -53 6 -64 -3 -14 1 -24 15 -31 26 -14 43 1 61 54 8 23 25 59
38 79 13 20 42 69 64 108 32 56 44 70 59 66 20 -5 40 11 87 75 35 47 39 61 49
160 5 48 20 119 34 158 14 40 26 84 27 99 0 15 3 20 6 12 14 -44 15 -45 23
-20 4 14 3 57 -1 95 -4 39 -8 174 -9 300 0 241 -4 275 -26 275 -8 0 -14 2 -14
3 0 2 -11 66 -25 143 -14 76 -28 154 -31 173 -3 21 -23 52 -52 83 -39 42 -46
55 -44 86 3 48 -11 71 -31 53 -13 -10 -21 -5 -49 30 -18 23 -54 65 -80 94 -27
29 -48 61 -48 72 0 27 -66 78 -133 103 -39 15 -66 33 -91 64 -20 25 -72 66
-122 95 -78 47 -97 54 -186 67 -55 8 -111 19 -125 25 -14 5 -66 18 -116 29
-78 17 -128 20 -347 20 -140 0 -262 -5 -270 -9z m-190 -516 c24 -8 50 -21 58
-28 8 -6 35 -19 61 -28 45 -15 46 -17 64 -81 16 -54 24 -67 53 -83 l33 -18 0
-93 -1 -94 -34 -28 c-21 -18 -43 -52 -60 -93 -14 -35 -32 -68 -40 -72 -8 -4
-14 -13 -14 -20 0 -36 -257 -50 -362 -21 -50 14 -58 20 -58 41 0 42 -27 93
-50 93 -11 0 -23 -7 -26 -15 -8 -21 -17 -19 -33 8 -11 17 -14 60 -12 187 2
201 6 230 33 230 11 0 26 7 35 16 9 8 22 13 29 10 7 -3 16 -1 19 4 9 14 120
87 141 93 41 10 123 6 164 -8z m1760 -116 c0 -5 -4 -9 -10 -9 -5 0 -10 7 -10
16 0 8 5 12 10 9 6 -3 10 -10 10 -16z"/>
<path d="M31275 29151 c-44 -10 -90 -23 -102 -29 -12 -7 -72 -19 -134 -28
-107 -15 -150 -30 -289 -103 -8 -5 -19 -21 -25 -37 -13 -39 -35 -57 -122 -100
-70 -35 -76 -40 -103 -98 -15 -34 -41 -75 -57 -93 -15 -18 -41 -50 -58 -73
-23 -31 -31 -37 -37 -26 -5 9 -15 13 -24 9 -18 -7 -44 -55 -44 -81 0 -10 -9
-27 -21 -38 -42 -38 -62 -104 -89 -306 -11 -79 -29 -137 -30 -95 0 29 -15 19
-30 -20 -21 -57 -23 -698 -2 -716 8 -7 17 -10 20 -7 12 14 44 -105 51 -190 6
-76 14 -107 38 -155 17 -33 33 -73 37 -90 13 -55 45 -94 84 -105 44 -12 81
-60 106 -138 19 -58 45 -82 136 -126 67 -33 88 -51 104 -91 7 -16 22 -38 33
-48 35 -31 234 -105 313 -117 106 -16 140 -28 152 -56 13 -28 45 -39 91 -30
130 24 185 27 422 24 l260 -3 44 29 c30 19 75 34 145 48 57 11 127 33 160 50
56 28 58 30 37 44 -26 19 -117 11 -209 -18 -54 -17 -70 -18 -105 -9 -44 13
-74 19 -94 20 -20 2 -93 78 -93 98 0 11 -14 33 -31 51 -25 25 -29 37 -25 64 6
40 38 68 78 68 23 0 42 13 82 53 38 37 84 68 162 106 91 45 121 66 179 127 53
54 82 76 120 89 28 9 62 23 77 31 59 32 121 11 148 -48 34 -74 26 -137 -31
-265 -10 -24 -19 -48 -19 -53 0 -18 -29 -68 -70 -123 -22 -29 -40 -55 -40 -58
0 -4 10 -9 22 -12 29 -8 75 14 127 63 37 34 44 46 43 76 -1 26 5 42 25 60 14
13 32 24 39 24 30 0 63 25 78 59 8 20 26 65 39 101 22 61 27 67 75 90 28 14
56 30 61 35 6 6 20 58 32 115 12 58 30 122 40 143 28 54 47 203 54 422 8 225
-4 371 -40 481 -14 43 -30 111 -35 150 -15 116 -38 144 -115 144 -37 0 -48 12
-60 70 -4 19 -18 59 -32 88 -20 43 -37 61 -87 94 -37 23 -73 58 -89 82 -34 54
-62 80 -135 124 -72 44 -174 120 -185 139 -15 25 -68 44 -160 58 -51 8 -127
23 -169 35 -111 29 -237 40 -453 39 -136 -1 -213 -6 -270 -18z m-180 -521 c78
-40 91 -53 107 -107 13 -44 47 -83 73 -83 19 0 23 -41 17 -157 -4 -88 -8 -105
-24 -114 -31 -17 -76 -87 -83 -130 -9 -52 -27 -59 -167 -66 -84 -5 -125 -2
-184 12 -67 16 -78 22 -99 54 -13 20 -30 62 -39 94 -12 39 -22 57 -34 58 -9 1
-25 2 -35 3 -27 2 -37 25 -37 88 0 64 19 92 71 103 23 5 31 15 44 56 10 28 14
61 10 78 -5 23 -1 33 21 50 15 12 41 21 61 21 20 0 51 11 76 28 59 38 66 41
117 41 31 1 63 -9 105 -29z"/>
<path d="M35271 29154 c0 -11 3 -14 6 -6 3 7 2 16 -1 19 -3 4 -6 -2 -5 -13z"/>
<path d="M29011 28994 c0 -11 3 -14 6 -6 3 7 2 16 -1 19 -3 4 -6 -2 -5 -13z"/>
<path d="M29023 27308 c-2 -16 1 -18 10 -9 7 7 8 14 1 21 -6 6 -10 2 -11 -12z"/>
<path d="M23709 26579 c-42 -56 -57 -68 -98 -79 -23 -6 -53 -22 -68 -36 l-28
-25 30 6 c17 3 53 10 80 15 90 15 165 53 165 85 0 6 -13 24 -29 39 l-28 27
-24 -32z"/>
<path d="M16402 26450 c0 -14 2 -19 5 -12 2 6 2 18 0 25 -3 6 -5 1 -5 -13z"/>
<path d="M37963 26442 c-6 -4 -14 -21 -18 -37 -4 -17 -13 -47 -22 -67 -21 -50
-12 -70 29 -66 l33 3 3 79 c3 79 -3 101 -25 88z"/>
<path d="M16884 24272 c12 -88 17 -102 34 -102 14 0 17 9 16 47 -1 64 -11 90
-35 96 -20 5 -21 3 -15 -41z"/>
<path d="M37430 24185 c-10 -12 -10 -15 3 -15 25 0 47 11 41 21 -8 14 -30 11
-44 -6z"/>
<path d="M39383 13955 c0 -22 2 -30 4 -17 2 12 2 30 0 40 -3 9 -5 -1 -4 -23z"/>
<path d="M39569 13430 c-4 -93 2 -170 16 -206 14 -38 15 -34 12 88 -2 83 -7
132 -15 140 -9 9 -12 4 -13 -22z"/>
<path d="M14297 12913 c-3 -16 -1 -35 4 -43 6 -10 8 -2 9 28 0 48 -5 55 -13
15z"/>
<path d="M14088 12340 c-4 -14 -8 -38 -8 -55 1 -25 2 -27 11 -12 6 9 9 34 7
55 -3 33 -4 35 -10 12z"/>
<path d="M13896 11808 c-3 -13 -8 -41 -11 -63 -4 -22 -9 -51 -12 -65 -3 -14
-2 -21 3 -17 5 5 15 34 22 65 7 31 15 67 18 80 4 13 2 22 -5 22 -6 0 -13 -10
-15 -22z"/>
<path d="M40072 11480 c-7 -20 -7 -32 -1 -36 6 -3 8 -12 5 -20 -3 -7 -1 -16 4
-19 6 -4 10 17 10 49 0 31 -2 56 -4 56 -2 0 -9 -13 -14 -30z"/>
<path d="M13820 11280 c0 -11 2 -20 5 -20 2 0 9 9 15 20 9 16 8 20 -5 20 -8 0
-15 -9 -15 -20z"/>
<path d="M40274 10714 c-12 -62 -9 -135 6 -184 l15 -45 3 124 c3 126 -10 180
-24 105z"/>
<path d="M13592 10358 c1 -123 2 -140 8 -88 12 100 11 240 0 240 -6 0 -9 -56
-8 -152z"/>
<path d="M15480 10181 c0 -11 -5 -23 -10 -26 -19 -12 -5 -329 19 -410 48 -169
68 -206 135 -249 29 -19 66 -54 83 -78 18 -26 48 -53 78 -70 65 -34 85 -55 85
-90 l0 -28 11270 0 11270 0 0 38 c0 51 16 69 69 75 37 5 53 15 102 63 71 70
103 129 130 235 11 46 27 96 36 113 12 23 14 49 10 109 -3 43 -7 81 -10 83 -9
9 -97 -40 -103 -58 -3 -10 -11 -18 -19 -18 -7 0 -16 -11 -19 -25 -4 -15 -13
-25 -25 -25 -10 0 -24 -7 -31 -14 -6 -8 -33 -22 -60 -31 -27 -9 -54 -23 -60
-30 -7 -8 -16 -12 -21 -9 -5 3 -9 0 -9 -5 0 -24 -39 -48 -87 -54 -28 -3 -79
-19 -114 -36 -34 -16 -66 -28 -70 -25 -5 2 -27 -4 -51 -15 -54 -24 -91 -33
-147 -37 -24 -2 -49 -8 -55 -13 -7 -6 -18 -6 -25 -1 -8 4 -29 3 -50 -4 -45
-16 -129 -19 -636 -18 -225 1 -498 0 -605 0 -107 -1 -204 -1 -215 -1 -406 7
-884 16 -930 19 -105 6 -173 7 -181 2 -24 -12 -1260 -15 -1404 -3 -133 11
-211 9 -260 -4 -47 -13 -166 -10 -381 10 -71 6 -115 6 -136 -1 -18 -7 -119 -9
-274 -6 -246 4 -335 11 -355 27 -6 5 -47 4 -95 -1 -112 -13 -266 -13 -274 0
-8 14 -105 11 -124 -4 -9 -7 -110 -9 -302 -7 -190 1 -309 -2 -345 -9 -42 -9
-104 -9 -257 0 -111 7 -291 12 -399 11 -167 -2 -201 0 -222 14 -19 13 -29 14
-45 6 -36 -20 -278 -25 -342 -8 -60 16 -281 15 -414 -2 -104 -13 -271 -14
-295 -1 -16 9 -25 8 -36 -1 -10 -8 -18 -8 -27 -1 -10 9 -553 13 -1307 11 -152
-1 -335 7 -347 14 -7 4 -45 4 -85 -1 -40 -5 -109 -8 -153 -6 -307 12 -535 13
-583 3 -41 -8 -56 -8 -68 2 -11 9 -23 9 -53 1 -21 -7 -99 -12 -175 -11 -82 0
-143 -4 -150 -10 -7 -6 -15 -9 -18 -6 -3 3 -38 7 -79 10 -41 2 -138 9 -216 14
-77 6 -327 11 -555 11 -550 0 -929 6 -1004 15 -38 5 -69 3 -81 -3 -26 -14 -86
-16 -522 -13 -242 1 -368 -2 -375 -9 -12 -12 -83 -14 -90 -1 -3 4 -50 10 -105
13 -57 3 -107 10 -115 17 -12 10 -34 9 -105 -3 -50 -9 -104 -16 -119 -16 -15
0 -33 -5 -40 -12 -9 -9 -17 -9 -36 2 -18 9 -56 11 -138 8 -66 -3 -142 0 -183
7 -116 20 -613 24 -709 6 -64 -12 -189 -9 -207 6 -16 12 -136 10 -239 -4 -75
-11 -325 -7 -420 5 -41 6 -72 5 -84 -1 -22 -11 -439 -14 -473 -3 -12 4 -24 2
-28 -4 -4 -6 -19 -9 -33 -6 -47 10 -125 15 -135 9 -19 -12 -435 -16 -467 -4
-20 7 -39 7 -56 1 -17 -7 -48 -6 -92 1 -72 12 -611 18 -618 7 -2 -3 -39 -6
-82 -6 -42 0 -111 -6 -152 -14 -47 -8 -92 -11 -120 -6 -35 6 -418 21 -480 18
-8 0 -23 0 -32 -1 -10 0 -18 -4 -18 -10 0 -5 -7 -9 -15 -9 -8 0 -15 7 -15 15
0 10 -9 14 -29 12 -16 -1 -27 -5 -25 -8 2 -4 -4 -10 -13 -14 -10 -3 -19 -1
-21 4 -2 6 -8 9 -13 5 -19 -11 -138 -7 -154 6 -13 11 -15 10 -10 -2 5 -12 -4
-15 -42 -15 -26 0 -58 -3 -70 -6 -13 -3 -23 -2 -23 2 0 4 -23 4 -51 1 -35 -5
-52 -3 -55 5 -3 7 -31 12 -70 12 -35 1 -71 6 -78 13 -10 8 -16 8 -21 0 -3 -6
-10 -8 -15 -5 -5 3 -12 1 -15 -5 -4 -7 -11 -8 -18 -2 -7 6 -41 8 -77 5 -124
-8 -215 -9 -236 -2 -12 4 -26 3 -31 -2 -11 -11 -78 -15 -112 -6 -13 4 -32 2
-42 -3 -12 -7 -22 -6 -31 3 -17 16 -47 20 -61 9 -13 -10 -42 -9 -71 3 -11 5
-32 3 -49 -3 -25 -9 -34 -9 -46 2 -15 13 -108 24 -263 30 -31 1 -63 8 -70 14
-8 6 -23 11 -33 10 -11 0 -40 7 -64 16 -24 9 -53 16 -65 16 -11 0 -43 13 -70
29 -27 16 -55 27 -63 24 -7 -3 -13 2 -13 11 0 18 -30 36 -60 36 -18 0 -21 4
-16 28 5 23 -2 33 -50 72 -33 27 -52 50 -49 58 3 10 0 12 -10 8 -8 -3 -15 -1
-15 4 0 6 -7 10 -15 10 -9 0 -20 11 -25 25 -5 14 -16 25 -24 25 -23 0 -49 42
-33 53 8 6 5 7 -8 4 -20 -4 -49 16 -39 26 10 10 -21 48 -36 44 -16 -4 -35 10
-38 28 -1 6 -13 11 -27 13 -19 3 -25 -1 -25 -17z"/>
<path d="M40471 9608 c1 -93 13 -132 22 -68 7 52 -2 140 -14 140 -5 0 -9 -33
-8 -72z"/>
<path d="M13387 9283 c-11 -10 -8 -53 3 -53 6 0 10 14 10 30 0 31 -2 35 -13
23z"/>
</g>
</svg>
