<svg width="137" height="29" viewBox="0 0 137 29" fill="none" xmlns="http://www.w3.org/2000/svg">
<g clip-path="url(#clip0_180_3067)">
<path d="M75.127 2.21562C75.127 3.43421 76.0883 4.43124 77.2899 4.43124C78.4796 4.43124 79.4529 3.43421 79.4529 2.21562C79.4529 0.997029 78.4916 0 77.2899 0C76.1003 0 75.127 0.98472 75.127 2.21562Z" fill="#FF1E00"/>
<path d="M0 11.4597V7.06536H15.1408V11.2627L6.08034 24.3964V24.6057H15.4292V29.0123H0V24.5195L8.8201 11.6689V11.4597H0Z" fill="white"/>
<path d="M18.4688 29V7.06536H33.7177V11.4966H23.8401V15.657H32.6122V19.9652H23.8401V24.5688H33.7177V29H18.4688Z" fill="white"/>
<path d="M54.5309 29H48.8591L44.6774 21.3069H42.5505V29H37.2031V7.06536H45.855C48.3664 7.06536 50.205 7.54542 51.3826 8.51783C52.5482 9.49024 53.137 10.9919 53.137 13.0229V15.1524C53.137 16.4941 52.8846 17.6265 52.392 18.5497C51.8993 19.4728 51.0581 20.1744 49.8925 20.6299L54.5309 29ZM45.2902 16.8756C46.2636 16.8756 46.9245 16.691 47.2609 16.334C47.5974 15.9771 47.7776 15.4109 47.7776 14.6231V13.6999C47.7776 12.9614 47.6094 12.4075 47.2609 12.0259C46.9245 11.6443 46.2876 11.4597 45.3743 11.4597H42.5384V16.8756H45.2902Z" fill="white"/>
<path d="M56.5133 21.2207V14.8447C56.5133 12.2721 57.0901 10.3272 58.2317 9.0225C59.3853 7.71774 61.1757 7.06536 63.6151 7.06536H65.8982C68.4337 7.06536 70.2963 7.70543 71.4979 8.99788C72.6996 10.278 73.3004 12.2351 73.3004 14.8447V21.0976C73.3004 23.7317 72.6875 25.7012 71.4739 27.0183C70.2602 28.3353 68.4457 28.9877 66.0544 28.9877H63.4469C61.1036 28.9877 59.3613 28.3353 58.1957 27.0429C57.0421 25.7627 56.4773 23.8179 56.5133 21.2207ZM61.9568 14.9308V21.1346C61.9568 22.3901 62.1611 23.2886 62.5576 23.8056C62.9542 24.3349 63.6391 24.5934 64.5884 24.5934H65.1171C66.0905 24.5934 66.7874 24.3349 67.22 23.8056C67.6526 23.2763 67.8689 22.3778 67.8689 21.0976V14.9554C67.8689 13.6999 67.6526 12.8014 67.2441 12.2598C66.8235 11.7182 66.1145 11.4474 65.1292 11.4474H64.6846C63.7353 11.4474 63.0383 11.7059 62.6057 12.2351C62.1611 12.789 61.9568 13.6753 61.9568 14.9308Z" fill="white"/>
<path d="M89.0541 29L87.2035 16.1863L85.2689 29H78.0349L75.127 7.06536H80.1258L82.0845 22.7347H82.0364L84.4998 7.07767H90.1235L92.2625 22.6978H92.2384L94.81 7.06536H99.6887L95.9756 29.0123H89.0541V29Z" fill="white"/>
<path d="M102.045 29V7.06536H117.294V11.4966H107.428V15.657H116.188V19.9652H107.428V24.5688H117.306V29H102.045Z" fill="white"/>
<path d="M120.801 7.06536H129.129C131.76 7.06536 133.623 7.5208 134.704 8.44397C135.798 9.36715 136.338 10.7827 136.338 12.6906V13.6753C136.338 14.6969 136.062 15.5216 135.509 16.174C134.957 16.8264 134.308 17.3065 133.563 17.6265C133.719 17.7126 133.983 17.8111 134.368 17.9465C134.752 18.0819 135.137 18.3035 135.521 18.6235C135.894 18.9189 136.23 19.3374 136.531 19.879C136.831 20.4206 136.987 21.1222 136.987 22.0085V23.1778C136.987 24.3718 136.795 25.3565 136.435 26.1074C136.062 26.8705 135.545 27.4614 134.884 27.9045C134.248 28.3476 133.478 28.6307 132.589 28.7907C131.7 28.9385 130.739 29.0123 129.705 29.0123H120.789V7.06536H120.801ZM129.08 11.4597H126.16V15.6447H129.116C129.837 15.6447 130.342 15.5216 130.619 15.2508C130.907 14.9924 131.039 14.5246 131.039 13.8476V13.1706C131.039 12.5921 130.883 12.1613 130.583 11.8782C130.282 11.6074 129.777 11.4597 129.08 11.4597ZM129.285 19.879H126.16V24.6057H129.369C130.306 24.6057 130.919 24.4334 131.207 24.101C131.496 23.7564 131.64 23.2886 131.64 22.6978V21.8362C131.64 21.1222 131.472 20.6176 131.123 20.3222C130.799 20.0267 130.174 19.879 129.285 19.879Z" fill="white"/>
</g>
<defs>
<clipPath id="clip0_180_3067">
<rect width="137" height="29" fill="white"/>
</clipPath>
</defs>
</svg>
